# xmcd CD database file
#
# Track frame offsets:
#	150
#	22085
#	45090
#
# Disc length: 878 seconds
#
# Revision: 1
# Processed by: cddbd v1.5.1PL0 Copyright (c) Steve Scherf et al.
# Submitted via: CDex 1.51
#
DISCID=18036c03
DTITLE=SPORTS - Believer
DYEAR=2005
DGENRE=JPop
TTITLE0=Believer
TTITLE1=nude
TTITLE2=I'm Floating
EXTD=YEAR: 2005
EXTT0=
EXTT1=
EXTT2=
PLAYORDER=
